<?xml version="1.0"?>
<svg xmlns="http://www.w3.org/2000/svg" viewBox="0 0 50 50">
    <path d="M 44.873047 11.015625 C 44.616398 11.003061 44.329469 11.018187 44.011719 11.070312 L 24.980469 14.957031 C 25.480469 17.770031 27.042969 26.957031 27.042969 26.957031 L 34.792969 26.988281 C 36.475969 26.988281 37.462922 28.656188 37.794922 30.242188 L 47.011719 30.957031 C 48.605719 30.926031 50.011719 30.009781 50.011719 28.300781 C 50.011719 26.590781 48.823219 25.175781 45.949219 25.050781 L 29.011719 23.003906 C 28.449719 22.925906 28.011719 22.555906 28.011719 22.003906 C 28.011719 21.451906 28.542719 21.145 29.011719 21 L 44.949219 15.988281 C 46.824219 15.457281 47.042969 14.477703 47.042969 13.470703 C 47.042969 12.625453 46.669586 11.103576 44.873047 11.015625 z M 17.330078 11.09375 C 15.434078 10.96975 13.764547 11.442906 13.560547 11.503906 L 4.7578125 14.048828 C 1.4978125 14.991828 0.01171875 18.55675 0.01171875 21.46875 L 0.01171875 24.052734 L 0.01171875 33.988281 C 0.01171875 34.275281 0.028640625 34.562609 0.056640625 34.849609 C 0.072640625 35.010609 0.099046875 35.168125 0.12304688 35.328125 C 0.14204688 35.449125 0.1556875 35.571406 0.1796875 35.691406 C 0.2116875 35.863406 0.254875 36.029266 0.296875 36.197266 C 0.325875 36.311266 0.35371875 36.425063 0.38671875 36.539062 C 0.42571875 36.673063 0.47257812 36.804547 0.51757812 36.935547 C 0.57357813 37.097547 0.6303125 37.258969 0.6953125 37.417969 C 0.7193125 37.479969 0.7464375 37.537656 0.7734375 37.597656 C 1.9614375 40.362656 4.5048438 42.609406 8.0898438 42.941406 C 8.3928438 42.971406 8.6997187 42.988281 9.0117188 42.988281 L 21.011719 42.988281 C 21.360719 42.988281 21.833094 42.929219 22.371094 42.824219 C 20.444094 42.315219 19.011719 40.573281 19.011719 38.488281 C 19.011719 36.007281 21.030719 33.988281 23.511719 33.988281 L 33.511719 33.988281 C 34.719719 34.010281 36.011719 33.269172 36.011719 31.576172 C 36.011719 29.824172 34.886469 28.988531 33.605469 29.019531 L 27.044922 28.988281 C 27.108922 31.464281 24.922641 33.456938 22.806641 33.960938 C 20.285641 34.562937 17.808969 33.144797 16.917969 30.591797 L 15.646484 25.695312 C 14.339484 27.236313 11.949594 29.310797 8.1835938 29.966797 C 7.6395937 30.061797 7.1213438 29.697297 7.0273438 29.154297 C 7.0183437 29.096297 7.0136719 29.039422 7.0136719 28.982422 C 7.0136719 28.504422 7.3567969 28.083047 7.8417969 27.998047 C 12.350797 27.212047 14.505 24.033219 15 23.199219 L 14.9375 22.955078 L 13.138672 23.935547 C 12.654672 24.200547 12.04525 24.022109 11.78125 23.537109 C 11.69825 23.385109 11.660156 23.220594 11.660156 23.058594 C 11.660156 22.704594 11.848641 22.361688 12.181641 22.179688 L 15.105469 20.585938 C 15.376469 20.438938 15.887922 20.178781 16.169922 20.300781 C 16.452922 20.423781 16.762469 20.520031 16.980469 20.957031 L 18.949219 29.988281 C 19.544219 31.682281 21.200922 32.207031 22.669922 31.957031 C 24.017922 31.728031 25.153469 30.525031 24.980469 28.957031 C 24.976469 28.922031 23.191406 17.267578 23.191406 17.267578 C 23.173406 16.956578 22.843078 11.86075 17.330078 11.09375 z M 23.511719 35.988281 C 22.130719 35.988281 21.011719 37.107281 21.011719 38.488281 C 21.011719 39.869281 22.130719 40.988281 23.511719 40.988281 L 31.511719 40.988281 C 32.892719 40.988281 34.011719 39.869281 34.011719 38.488281 C 34.011719 37.107281 32.892719 35.988281 31.511719 35.988281 L 23.511719 35.988281 z"/>
</svg>
