<?xml version="1.0"?>
<svg xmlns="http://www.w3.org/2000/svg" viewBox="0 0 50 50">
    <path d="M40,13.583C40,13.913,40,34,40,34c0,5.634-4.576,9-9,9c0,0-8.171-0.004-8.208-0.006c-5.521-0.061-7.556-2.471-8.802-4.816 l-2.821-5.556C10.404,30.834,10,29.234,10,28c0-4.818,3.15-6.459,4-6.969V12.39c0-1.741,1.532-2.39,2.498-2.39 C17.505,10,19,10.667,19,12.506V16c0,0.552,0.452,1,1.004,1c0.553,0,1-0.448,1-1v-5.494C21.004,9.495,21.8,8,23.51,8 c1.709,0,2.49,1.495,2.489,2.506v4.507v0.001c0.001,0.552,0.464,0.999,1.017,0.999s1-0.448,1-1v-3.507 C28.016,10.363,28.77,9,30.522,9c1.75,0,2.5,1.271,2.479,2.479V16c0,0.552,0.475,1,1.027,1c0.554,0,1-0.448,1-1v-2.469 c0-1.343,0.785-2.531,2.506-2.531S40,12.208,40,13.583z"/>
</svg>
