<?xml version="1.0"?>
<svg xmlns="http://www.w3.org/2000/svg" width="50" height="50" viewBox="0 0 50 50">
    <path d="M39.533,7c-1.721,0-2.505,1.188-2.505,2.531V23c0,0.552-0.447,1-1,1S35,23.552,35,23V4.479C35.021,3.271,34.272,2,32.521,2 s-2.506,1.363-2.506,2.506v17.507c0,0.552-0.447,1-1,1c-0.552,0-1.015-0.447-1.016-0.999c0,0,0-0.001,0-0.001V2.506 C28,1.495,27.219,0,25.51,0c-1.71,0-2.506,1.495-2.506,2.506V23c0,0.552-0.448,1-1,1S21,23.552,21,23V6.548 c0-1.839-1.495-2.506-2.502-2.506C17.532,4.042,16,4.691,16,6.432v25.866c-0.038,0.022-0.085,0.032-0.132,0.044l-0.005-0.044l-5-6 c-1.3-1.399-3.5-1.399-4.9,0c-1.4,1.301-1.4,3.5,0,4.9l0.113,0.146c0.035,0.094,0.07,0.188,0.134,0.27l8.52,10.944l2.732,3.54 l-0.004-0.036l0.352,0.452c0.001,0.002,0.004,0.002,0.005,0.004c1.563,2.073,3.93,3.303,6.554,3.452 c0.125,0.011,0.26,0.018,0.401,0.022c0.043,0,0.085,0.007,0.129,0.007c0.005,0,0.009-0.003,0.014-0.003 C24.943,49.998,24.969,50,25,50h8c4.424,0,9-3.366,9-9c0,0,0-30.042,0-31.417S41.254,7,39.533,7z"/>
</svg>
